<svg width="16" height="15" viewBox="0 0 16 15" fill="none" xmlns="http://www.w3.org/2000/svg">
<path d="M8.13677 3.68165C6.02163 3.68165 4.31555 5.38497 4.31555 7.49669C4.31555 9.60841 6.02163 11.3117 8.13677 11.3117C10.2519 11.3117 11.958 9.60841 11.958 7.49669C11.958 5.38497 10.2519 3.68165 8.13677 3.68165ZM8.13677 9.97696C6.76991 9.97696 5.65248 8.86466 5.65248 7.49669C5.65248 6.12872 6.76658 5.01642 8.13677 5.01642C9.50695 5.01642 10.6211 6.12872 10.6211 7.49669C10.6211 8.86466 9.50363 9.97696 8.13677 9.97696ZM13.0056 3.5256C13.0056 4.02032 12.6065 4.41544 12.1143 4.41544C11.6188 4.41544 11.223 4.017 11.223 3.5256C11.223 3.03419 11.6221 2.63575 12.1143 2.63575C12.6065 2.63575 13.0056 3.03419 13.0056 3.5256ZM15.5364 4.42872C15.4799 3.23673 15.2072 2.18087 14.3325 1.31095C13.4612 0.441028 12.4036 0.168762 11.2097 0.108997C9.9792 0.03927 6.29101 0.03927 5.0605 0.108997C3.8699 0.165442 2.81233 0.437707 1.93768 1.30763C1.06302 2.17755 0.793639 3.23341 0.733776 4.4254C0.663937 5.65392 0.663937 9.33614 0.733776 10.5647C0.790313 11.7567 1.06302 12.8125 1.93768 13.6824C2.81233 14.5524 3.86658 14.8246 5.0605 14.8844C6.29101 14.9541 9.9792 14.9541 11.2097 14.8844C12.4036 14.8279 13.4612 14.5557 14.3325 13.6824C15.2039 12.8125 15.4766 11.7567 15.5364 10.5647C15.6063 9.33614 15.6063 5.65724 15.5364 4.42872ZM13.9468 11.8828C13.6874 12.5336 13.1852 13.035 12.53 13.2973C11.5489 13.6858 9.22094 13.5961 8.13677 13.5961C7.05259 13.5961 4.72128 13.6824 3.74353 13.2973C3.09169 13.0383 2.58951 12.5369 2.32678 11.8828C1.93768 10.9033 2.02747 8.57911 2.02747 7.49669C2.02747 6.41427 1.941 4.08673 2.32678 3.11056C2.58619 2.45978 3.08837 1.95841 3.74353 1.69611C4.72461 1.30763 7.05259 1.39728 8.13677 1.39728C9.22094 1.39728 11.5523 1.31095 12.53 1.69611C13.1818 1.95509 13.684 2.45646 13.9468 3.11056C14.3359 4.09005 14.2461 6.41427 14.2461 7.49669C14.2461 8.57911 14.3359 10.9067 13.9468 11.8828Z" fill="white"/>
</svg>
