<svg width="139" height="44" viewBox="0 0 139 44" fill="none" xmlns="http://www.w3.org/2000/svg">
<path d="M138.5 0.5H0.5V43.5H138.5V0.5Z" stroke="white" stroke-linejoin="round"/>
<path d="M34.9521 34.2662H34.8398C34.2307 34.2662 33.7189 33.7666 33.6747 33.1289C33.6302 32.4602 34.1187 31.8781 34.7638 31.8341C34.7892 31.8324 34.8157 31.8315 34.8417 31.8315C35.4587 31.8315 35.9755 32.3214 36.0214 32.9482C36.0331 33.1967 35.9926 33.5509 35.7372 33.8434L35.7313 33.8502L35.7255 33.8571C35.5287 34.0907 35.262 34.2316 34.9521 34.2662ZM21.2201 34.2599C20.5695 34.2599 20.0403 33.7169 20.0403 33.0496C20.0403 32.3827 20.5695 31.8401 21.2201 31.8401C21.8707 31.8401 22.3999 32.3827 22.3999 33.0496C22.3999 33.7169 21.8707 34.2599 21.2201 34.2599Z" fill="white"/>
<path d="M34.8765 33.2662C34.9215 33.2549 34.9428 33.2339 34.9605 33.2129C34.9683 33.2037 34.9761 33.1946 34.9839 33.1855C35.0204 33.1438 35.0237 33.0553 35.0229 33.0105C35.0097 32.9044 34.9189 32.8315 34.8417 32.8315C34.838 32.8315 34.8341 32.8317 34.8317 32.8318C34.7536 32.8372 34.6658 32.9409 34.6724 33.0625C34.6818 33.1793 34.7679 33.2662 34.8397 33.2662H34.8765ZM21.22 33.2599C21.3192 33.2599 21.3998 33.1655 21.3998 33.0496C21.3998 32.9341 21.3192 32.8401 21.22 32.8401C21.1209 32.8401 21.0402 32.9341 21.0402 33.0496C21.0402 33.1655 21.1209 33.2599 21.22 33.2599ZM34.9999 35.2662C34.9522 35.2662 34.8883 35.2662 34.8397 35.2662C33.7021 35.2662 32.7571 34.3545 32.677 33.198C32.5969 31.9929 33.4942 30.9183 34.6957 30.8364C34.7446 30.8331 34.7933 30.8315 34.8417 30.8315C35.9804 30.8315 36.9418 31.7324 37.0195 32.8884C37.051 33.4915 36.8746 34.0612 36.4903 34.5012C36.106 34.9575 35.5768 35.2177 34.9999 35.2662ZM21.22 35.2599C20.0158 35.2599 19.0402 34.2709 19.0402 33.0496C19.0402 31.8291 20.0158 30.8401 21.22 30.8401C22.4242 30.8401 23.3998 31.8291 23.3998 33.0496C23.3998 34.2709 22.4242 35.2599 21.22 35.2599ZM34.1989 28.3938H22.1335C21.7006 28.3938 21.3163 28.1005 21.2038 27.6775L17.278 13.2477H14.5222C13.9939 13.2477 13.561 12.8086 13.561 12.2704C13.561 11.733 13.9939 11.293 14.5222 11.293H17.9998C18.4318 11.293 18.8161 11.5863 18.9286 12.0103L22.8544 26.4391H33.5581L37.1149 18.1338H25.2583C24.7291 18.1338 24.2962 17.6937 24.2962 17.1565C24.2962 16.6191 24.7291 16.1791 25.2583 16.1791H38.5891C38.9095 16.1791 39.2146 16.3419 39.3901 16.6191C39.5665 16.8954 39.5989 17.2374 39.4702 17.547L35.08 27.807C34.9198 28.1653 34.5832 28.3938 34.1989 28.3938Z" fill="white"/>
<path d="M34.8765 33.2662C34.9215 33.2549 34.9428 33.2339 34.9605 33.2129C34.9683 33.2037 34.9761 33.1946 34.9839 33.1855C35.0204 33.1438 35.0237 33.0553 35.0229 33.0105C35.0097 32.9044 34.9189 32.8315 34.8417 32.8315C34.838 32.8315 34.8341 32.8317 34.8317 32.8318C34.7536 32.8372 34.6658 32.9409 34.6724 33.0625C34.6818 33.1793 34.7679 33.2662 34.8397 33.2662H34.8765ZM21.22 33.2599C21.3192 33.2599 21.3998 33.1655 21.3998 33.0496C21.3998 32.9341 21.3192 32.8401 21.22 32.8401C21.1209 32.8401 21.0402 32.9341 21.0402 33.0496C21.0402 33.1655 21.1209 33.2599 21.22 33.2599ZM34.9999 35.2662C34.9522 35.2662 34.8883 35.2662 34.8397 35.2662C33.7021 35.2662 32.7571 34.3545 32.677 33.198C32.5969 31.9929 33.4942 30.9183 34.6957 30.8364C34.7446 30.8331 34.7933 30.8315 34.8417 30.8315C35.9804 30.8315 36.9418 31.7324 37.0195 32.8884C37.051 33.4915 36.8746 34.0612 36.4903 34.5012C36.106 34.9575 35.5768 35.2177 34.9999 35.2662ZM21.22 35.2599C20.0158 35.2599 19.0402 34.2709 19.0402 33.0496C19.0402 31.8291 20.0158 30.8401 21.22 30.8401C22.4242 30.8401 23.3998 31.8291 23.3998 33.0496C23.3998 34.2709 22.4242 35.2599 21.22 35.2599ZM34.1989 28.3938H22.1335C21.7006 28.3938 21.3163 28.1005 21.2038 27.6775L17.278 13.2477H14.5222C13.9939 13.2477 13.561 12.8086 13.561 12.2704C13.561 11.733 13.9939 11.293 14.5222 11.293H17.9998C18.4318 11.293 18.8161 11.5863 18.9286 12.0103L22.8544 26.4391H33.5581L37.1149 18.1338H25.2583C24.7291 18.1338 24.2962 17.6937 24.2962 17.1565C24.2962 16.6191 24.7291 16.1791 25.2583 16.1791H38.5891C38.9095 16.1791 39.2146 16.3419 39.3901 16.6191C39.5665 16.8954 39.5989 17.2374 39.4702 17.547L35.08 27.807C34.9198 28.1653 34.5832 28.3938 34.1989 28.3938Z" fill="white"/>
<path d="M57.201 24.5109L55.626 20.4299C55.5794 20.3085 55.5304 20.1685 55.479 20.0099C55.4277 19.8465 55.3787 19.6739 55.332 19.4919C55.234 19.8699 55.1337 20.1849 55.031 20.4369L53.456 24.5109H57.201ZM60.029 28.2349H58.979C58.8577 28.2349 58.7597 28.2045 58.685 28.1439C58.6104 28.0832 58.5544 28.0062 58.517 27.9129L57.579 25.4909H53.078L52.14 27.9129C52.112 27.9969 52.0584 28.0715 51.979 28.1369C51.8997 28.2022 51.8017 28.2349 51.685 28.2349H50.635L54.646 18.2039H56.018L60.029 28.2349ZM65.5242 22.8309C65.2909 22.5182 65.0389 22.3012 64.7682 22.1799C64.4976 22.0539 64.1942 21.9909 63.8582 21.9909C63.2002 21.9909 62.6939 22.2265 62.3392 22.6979C61.9846 23.1692 61.8072 23.8412 61.8072 24.7139C61.8072 25.1759 61.8469 25.5725 61.9262 25.9039C62.0056 26.2305 62.1222 26.5012 62.2762 26.7159C62.4302 26.9259 62.6192 27.0799 62.8432 27.1779C63.0672 27.2759 63.3216 27.3249 63.6062 27.3249C64.0169 27.3249 64.3739 27.2315 64.6772 27.0449C64.9852 26.8582 65.2676 26.5945 65.5242 26.2539V22.8309ZM66.7702 17.9239V28.2349H66.0282C65.8509 28.2349 65.7389 28.1485 65.6922 27.9759L65.5802 27.1149C65.2769 27.4789 64.9316 27.7729 64.5442 27.9969C64.1569 28.2209 63.7089 28.3329 63.2002 28.3329C62.7942 28.3329 62.4256 28.2559 62.0942 28.1019C61.7629 27.9432 61.4806 27.7122 61.2472 27.4089C61.0139 27.1055 60.8342 26.7275 60.7082 26.2749C60.5822 25.8222 60.5192 25.3019 60.5192 24.7139C60.5192 24.1912 60.5892 23.7059 60.7292 23.2579C60.8692 22.8052 61.0699 22.4132 61.3312 22.0819C61.5926 21.7505 61.9122 21.4915 62.2902 21.3049C62.6729 21.1135 63.1022 21.0179 63.5782 21.0179C64.0122 21.0179 64.3832 21.0925 64.6912 21.2419C65.0039 21.3865 65.2816 21.5895 65.5242 21.8509V17.9239H66.7702ZM73.3582 22.8309C73.1249 22.5182 72.8729 22.3012 72.6022 22.1799C72.3316 22.0539 72.0282 21.9909 71.6922 21.9909C71.0342 21.9909 70.5279 22.2265 70.1732 22.6979C69.8186 23.1692 69.6412 23.8412 69.6412 24.7139C69.6412 25.1759 69.6809 25.5725 69.7602 25.9039C69.8396 26.2305 69.9562 26.5012 70.1102 26.7159C70.2642 26.9259 70.4532 27.0799 70.6772 27.1779C70.9012 27.2759 71.1556 27.3249 71.4402 27.3249C71.8509 27.3249 72.2079 27.2315 72.5112 27.0449C72.8192 26.8582 73.1016 26.5945 73.3582 26.2539V22.8309ZM74.6042 17.9239V28.2349H73.8622C73.6849 28.2349 73.5729 28.1485 73.5262 27.9759L73.4142 27.1149C73.1109 27.4789 72.7656 27.7729 72.3782 27.9969C71.9909 28.2209 71.5429 28.3329 71.0342 28.3329C70.6282 28.3329 70.2596 28.2559 69.9282 28.1019C69.5969 27.9432 69.3146 27.7122 69.0812 27.4089C68.8479 27.1055 68.6682 26.7275 68.5422 26.2749C68.4162 25.8222 68.3532 25.3019 68.3532 24.7139C68.3532 24.1912 68.4232 23.7059 68.5632 23.2579C68.7032 22.8052 68.9039 22.4132 69.1652 22.0819C69.4266 21.7505 69.7462 21.4915 70.1242 21.3049C70.5069 21.1135 70.9362 21.0179 71.4122 21.0179C71.8462 21.0179 72.2172 21.0925 72.5252 21.2419C72.8379 21.3865 73.1156 21.5895 73.3582 21.8509V17.9239H74.6042ZM82.3312 28.3469C81.7712 28.3469 81.3396 28.1905 81.0362 27.8779C80.7376 27.5652 80.5882 27.1149 80.5882 26.5269V22.1869H79.7342C79.6596 22.1869 79.5966 22.1659 79.5452 22.1239C79.4939 22.0772 79.4682 22.0072 79.4682 21.9139V21.4169L80.6302 21.2699L80.9172 19.0789C80.9312 19.0089 80.9616 18.9529 81.0082 18.9109C81.0596 18.8642 81.1249 18.8409 81.2042 18.8409H81.8342V21.2839H83.8852V22.1869H81.8342V26.4429C81.8342 26.7415 81.9066 26.9632 82.0512 27.1079C82.1959 27.2525 82.3826 27.3249 82.6112 27.3249C82.7419 27.3249 82.8539 27.3085 82.9472 27.2759C83.0452 27.2385 83.1292 27.1989 83.1992 27.1569C83.2692 27.1149 83.3276 27.0775 83.3742 27.0449C83.4256 27.0075 83.4699 26.9889 83.5072 26.9889C83.5726 26.9889 83.6309 27.0285 83.6822 27.1079L84.0462 27.7029C83.8316 27.9035 83.5726 28.0622 83.2692 28.1789C82.9659 28.2909 82.6532 28.3469 82.3312 28.3469ZM88.1198 21.0319C88.6378 21.0319 89.1045 21.1182 89.5198 21.2909C89.9351 21.4635 90.2898 21.7085 90.5838 22.0259C90.8778 22.3432 91.1018 22.7282 91.2558 23.1809C91.4145 23.6289 91.4938 24.1305 91.4938 24.6859C91.4938 25.2459 91.4145 25.7499 91.2558 26.1979C91.1018 26.6459 90.8778 27.0285 90.5838 27.3459C90.2898 27.6632 89.9351 27.9082 89.5198 28.0809C89.1045 28.2489 88.6378 28.3329 88.1198 28.3329C87.5971 28.3329 87.1258 28.2489 86.7058 28.0809C86.2905 27.9082 85.9358 27.6632 85.6418 27.3459C85.3478 27.0285 85.1215 26.6459 84.9628 26.1979C84.8088 25.7499 84.7318 25.2459 84.7318 24.6859C84.7318 24.1305 84.8088 23.6289 84.9628 23.1809C85.1215 22.7282 85.3478 22.3432 85.6418 22.0259C85.9358 21.7085 86.2905 21.4635 86.7058 21.2909C87.1258 21.1182 87.5971 21.0319 88.1198 21.0319ZM88.1198 27.3599C88.8198 27.3599 89.3425 27.1265 89.6878 26.6599C90.0331 26.1885 90.2058 25.5329 90.2058 24.6929C90.2058 23.8482 90.0331 23.1902 89.6878 22.7189C89.3425 22.2475 88.8198 22.0119 88.1198 22.0119C87.7651 22.0119 87.4548 22.0725 87.1888 22.1939C86.9275 22.3152 86.7081 22.4902 86.5308 22.7189C86.3581 22.9475 86.2275 23.2299 86.1388 23.5659C86.0548 23.8972 86.0128 24.2729 86.0128 24.6929C86.0128 25.5329 86.1855 26.1885 86.5308 26.6599C86.8808 27.1265 87.4105 27.3599 88.1198 27.3599ZM103.992 26.1629C104.067 26.1629 104.132 26.1932 104.188 26.2539L104.727 26.8349C104.317 27.3109 103.817 27.6819 103.229 27.9479C102.646 28.2139 101.939 28.3469 101.108 28.3469C100.39 28.3469 99.7362 28.2232 99.1482 27.9759C98.5602 27.7239 98.0585 27.3739 97.6432 26.9259C97.2279 26.4732 96.9059 25.9319 96.6772 25.3019C96.4485 24.6719 96.3342 23.9789 96.3342 23.2229C96.3342 22.4669 96.4532 21.7739 96.6912 21.1439C96.9292 20.5139 97.2629 19.9725 97.6922 19.5199C98.1262 19.0672 98.6442 18.7172 99.2462 18.4699C99.8482 18.2179 100.513 18.0919 101.241 18.0919C101.955 18.0919 102.585 18.2062 103.131 18.4349C103.677 18.6635 104.158 18.9739 104.573 19.3659L104.125 19.9889C104.097 20.0355 104.06 20.0752 104.013 20.1079C103.971 20.1359 103.913 20.1499 103.838 20.1499C103.754 20.1499 103.652 20.1055 103.53 20.0169C103.409 19.9235 103.25 19.8209 103.054 19.7089C102.858 19.5969 102.613 19.4965 102.319 19.4079C102.025 19.3145 101.664 19.2679 101.234 19.2679C100.716 19.2679 100.243 19.3589 99.8132 19.5409C99.3839 19.7182 99.0129 19.9772 98.7002 20.3179C98.3922 20.6585 98.1519 21.0739 97.9792 21.5639C97.8065 22.0539 97.7202 22.6069 97.7202 23.2229C97.7202 23.8482 97.8089 24.4059 97.9862 24.8959C98.1682 25.3859 98.4132 25.8012 98.7212 26.1419C99.0339 26.4779 99.4002 26.7345 99.8202 26.9119C100.245 27.0892 100.702 27.1779 101.192 27.1779C101.491 27.1779 101.759 27.1615 101.997 27.1289C102.24 27.0915 102.462 27.0355 102.662 26.9609C102.868 26.8862 103.057 26.7929 103.229 26.6809C103.407 26.5642 103.582 26.4265 103.754 26.2679C103.834 26.1979 103.913 26.1629 103.992 26.1629ZM109.851 25.0429C109.277 25.0615 108.787 25.1082 108.381 25.1829C107.979 25.2529 107.65 25.3462 107.394 25.4629C107.142 25.5795 106.957 25.7172 106.841 25.8759C106.729 26.0345 106.673 26.2119 106.673 26.4079C106.673 26.5945 106.703 26.7555 106.764 26.8909C106.824 27.0262 106.906 27.1382 107.009 27.2269C107.116 27.3109 107.24 27.3739 107.38 27.4159C107.524 27.4532 107.678 27.4719 107.842 27.4719C108.061 27.4719 108.262 27.4509 108.444 27.4089C108.626 27.3622 108.796 27.2969 108.955 27.2129C109.118 27.1289 109.272 27.0285 109.417 26.9119C109.566 26.7952 109.711 26.6622 109.851 26.5129V25.0429ZM105.826 22.1449C106.218 21.7669 106.64 21.4845 107.093 21.2979C107.545 21.1112 108.047 21.0179 108.598 21.0179C108.994 21.0179 109.347 21.0832 109.655 21.2139C109.963 21.3445 110.222 21.5265 110.432 21.7599C110.642 21.9932 110.8 22.2755 110.908 22.6069C111.015 22.9382 111.069 23.3022 111.069 23.6989V28.2349H110.516C110.394 28.2349 110.301 28.2162 110.236 28.1789C110.17 28.1369 110.119 28.0575 110.082 27.9409L109.942 27.2689C109.755 27.4415 109.573 27.5955 109.396 27.7309C109.218 27.8615 109.032 27.9735 108.836 28.0669C108.64 28.1555 108.43 28.2232 108.206 28.2699C107.986 28.3212 107.741 28.3469 107.471 28.3469C107.195 28.3469 106.936 28.3095 106.694 28.2349C106.451 28.1555 106.239 28.0389 106.057 27.8849C105.879 27.7309 105.737 27.5372 105.63 27.3039C105.527 27.0659 105.476 26.7859 105.476 26.4639C105.476 26.1839 105.553 25.9155 105.707 25.6589C105.861 25.3975 106.11 25.1665 106.456 24.9659C106.801 24.7652 107.251 24.6019 107.807 24.4759C108.362 24.3452 109.043 24.2705 109.851 24.2519V23.6989C109.851 23.1482 109.732 22.7329 109.494 22.4529C109.256 22.1682 108.908 22.0259 108.451 22.0259C108.143 22.0259 107.884 22.0655 107.674 22.1449C107.468 22.2195 107.289 22.3059 107.135 22.4039C106.985 22.4972 106.855 22.5835 106.743 22.6629C106.635 22.7375 106.528 22.7749 106.421 22.7749C106.337 22.7749 106.264 22.7539 106.204 22.7119C106.143 22.6652 106.092 22.6092 106.05 22.5439L105.826 22.1449ZM114.15 22.5649C114.374 22.0795 114.649 21.7015 114.976 21.4309C115.302 21.1555 115.701 21.0179 116.173 21.0179C116.322 21.0179 116.464 21.0342 116.6 21.0669C116.74 21.0995 116.863 21.1509 116.971 21.2209L116.88 22.1519C116.852 22.2685 116.782 22.3269 116.67 22.3269C116.604 22.3269 116.509 22.3129 116.383 22.2849C116.257 22.2569 116.114 22.2429 115.956 22.2429C115.732 22.2429 115.531 22.2755 115.354 22.3409C115.181 22.4062 115.025 22.5042 114.885 22.6349C114.749 22.7609 114.626 22.9195 114.514 23.1109C114.406 23.2975 114.308 23.5122 114.22 23.7549V28.2349H112.967V21.1439H113.681C113.816 21.1439 113.909 21.1695 113.961 21.2209C114.012 21.2722 114.047 21.3609 114.066 21.4869L114.15 22.5649ZM120.243 28.3469C119.683 28.3469 119.252 28.1905 118.948 27.8779C118.65 27.5652 118.5 27.1149 118.5 26.5269V22.1869H117.646C117.572 22.1869 117.509 22.1659 117.457 22.1239C117.406 22.0772 117.38 22.0072 117.38 21.9139V21.4169L118.542 21.2699L118.829 19.0789C118.843 19.0089 118.874 18.9529 118.92 18.9109C118.972 18.8642 119.037 18.8409 119.116 18.8409H119.746V21.2839H121.797V22.1869H119.746V26.4429C119.746 26.7415 119.819 26.9632 119.963 27.1079C120.108 27.2525 120.295 27.3249 120.523 27.3249C120.654 27.3249 120.766 27.3085 120.859 27.2759C120.957 27.2385 121.041 27.1989 121.111 27.1569C121.181 27.1149 121.24 27.0775 121.286 27.0449C121.338 27.0075 121.382 26.9889 121.419 26.9889C121.485 26.9889 121.543 27.0285 121.594 27.1079L121.958 27.7029C121.744 27.9035 121.485 28.0622 121.181 28.1789C120.878 28.2909 120.565 28.3469 120.243 28.3469Z" fill="white"/>
</svg>
